<?xml version="1.0" encoding="utf-8"?>
<svg viewBox="82.355 61.4 335.29 377.201" xmlns="http://www.w3.org/2000/svg">
  <linearGradient id="a" gradientUnits="userSpaceOnUse" x1="-825.508" y1="1338.301" x2="-825.508" y2="1419.102" gradientTransform="matrix(1, 0, 0, -1, 1026.638742, 1593.229957)">
    <stop offset="0.387" stop-color="#d1d3d4" stop-opacity="0"/>
    <stop offset="1" stop-color="#d1d3d4"/>
  </linearGradient>
  <linearGradient id="b" gradientUnits="userSpaceOnUse" x1="-724.552" y1="1378.602" x2="-724.552" y2="1462.591" gradientTransform="matrix(1, 0, 0, -1, 1026.638742, 1593.229957)">
    <stop offset="0.387" stop-color="#d1d3d4" stop-opacity="0"/>
    <stop offset="1" stop-color="#d1d3d4"/>
  </linearGradient>
  <linearGradient id="c" gradientUnits="userSpaceOnUse" x1="-874.103" y1="1302.263" x2="-680.039" y2="1302.263" gradientTransform="matrix(1, 0, 0, -1, 1026.638742, 1593.229957)">
    <stop offset="0" stop-color="#e8e7e5"/>
    <stop offset="1" stop-color="#fff"/>
  </linearGradient>
  <linearGradient id="d" gradientUnits="userSpaceOnUse" x1="-883.032" y1="1442.031" x2="-672.341" y2="1442.031" gradientTransform="matrix(1, 0, 0, -1, 1026.638742, 1593.229957)">
    <stop offset="0" stop-color="#e8e7e5"/>
    <stop offset="1" stop-color="#fff"/>
  </linearGradient>
  <path d="M 386.209 401.925 L 249.999 438.601 L 113.787 401.925 L 82.355 61.4 L 417.645 61.4 L 386.209 401.925 Z" fill="#2062af"/>
  <path d="M 249.998 88.982 L 249.998 409.349 L 250.306 409.433 L 360.535 379.751 L 385.978 88.982 L 249.998 88.982 Z" fill="#3c9cd7"/>
  <path d="M 249.877 174.127 L 152.387 214.729 L 155.62 254.928 L 249.877 214.627 L 350.142 171.759 L 354.299 130.637 L 249.877 174.127 Z" fill="#fff"/>
  <path d="M 152.386 214.729 L 155.619 254.928 L 249.876 214.627 L 249.876 174.127 L 152.386 214.729 Z" fill="url(#a)"/>
  <path d="M 354.299 130.638 L 249.877 174.127 L 249.877 214.627 L 350.142 171.759 L 354.299 130.638 Z" fill="url(#b)"/>
  <path d="M 152.536 214.729 L 155.77 254.928 L 300.395 255.389 L 297.16 308.987 L 249.57 322.385 L 203.822 310.834 L 201.05 277.566 L 158.542 277.566 L 164.087 341.791 L 250.032 367.203 L 335.511 342.252 L 346.601 214.729 L 152.536 214.729 Z" fill="url(#c)"/>
  <path d="M 249.877 214.729 L 152.387 214.729 L 155.62 254.928 L 249.877 255.229 L 249.877 214.729 Z M 249.877 322.257 L 249.415 322.386 L 203.673 310.835 L 200.901 277.567 L 158.394 277.567 L 163.938 341.792 L 249.877 367.204 L 249.877 322.257 Z" opacity=".05"/>
  <path d="M 143.607 130.638 L 354.299 130.638 L 350.142 171.76 L 148.689 171.76 L 143.607 130.638 Z" fill="url(#d)"/>
  <path d="M 249.877 130.638 L 143.607 130.638 L 148.689 171.76 L 249.877 171.76 L 249.877 130.638 Z" opacity=".05"/>
</svg>