<?xml version="1.0" encoding="utf-8"?>
<svg viewBox="52.92 89.515 394.16 320.969" xmlns="http://www.w3.org/2000/svg">
  <g id="layer1" transform="matrix(2.061944, 0, 0, 1.882214, -339.025731, 41.107773)" style="">
    <path style="fill: rgb(255, 255, 255);" d="M 247.21 177.565 C 239.927 171.837 232.159 166.346 226.851 158.613 C 215.682 144.976 207.082 129.188 201.202 112.596 C 197.649 101.808 196.432 90.241 191.851 79.869 C 187.058 72.336 192.672 64.101 200.923 61.707 C 204.597 61.002 211.057 57.537 203.259 60.013 C 196.269 65.142 195.592 55.358 202.76 54.738 C 207.652 54.088 209.453 50.083 207.78 46.478 C 202.529 43.054 220.514 39.29 211.465 34.18 C 202.038 24.01 224.651 22.052 219.072 33.602 C 217.737 42.484 234.873 31.974 230.897 42.231 C 234.938 47.157 246.031 43.352 245.756 50.263 C 251.643 50.667 253.663 55.621 259.19 56.001 C 264.917 58.588 275.3 60.626 277.249 67.08 C 271.567 71.579 258.408 57.788 257.776 70.241 C 259.493 88.637 259.056 107.587 265.786 125.106 C 268.97 135.713 276.687 144.063 283.657 152.325 C 290.326 160.416 299.359 166.112 308.566 170.908 C 316.643 174.717 325.35 177.244 334.152 178.829 C 337.722 176.098 344.025 165.946 349.594 170.227 C 349.858 175.037 338.54 180.282 349.062 179.751 C 355.24 177.887 359.525 184.529 364.613 178.538 C 369.3 184.09 384.095 174.99 380.76 186.339 C 376.25 189.248 369.673 187.49 365.156 191.493 C 357.708 187.773 351.779 194.821 343.534 193.93 C 334.377 195.57 325.062 196.232 315.779 196.246 C 300.55 195.043 284.997 194.536 270.509 189.233 C 262.348 186.862 254.383 182.214 247.21 177.565 Z M 260.072 183.138 C 268.041 186.584 275.834 190.217 284.568 191.312 C 298.425 193.24 312.735 196.204 326.641 193.5 C 320.347 190.658 313.841 194.607 307.57 191.468 C 300.05 193.086 291.98 191.056 284.335 190.056 C 275.641 186.183 266.258 183.52 258.117 178.494 C 247.944 174.778 263.378 183.259 266.126 183.946 C 272.485 187.556 259.132 182.095 257.25 180.595 C 251.923 177.607 251.244 178.231 256.722 181.266 C 257.826 181.912 258.916 182.588 260.072 183.138 Z M 244.907 172.421 C 252.63 175.282 244.873 166.99 241.334 167.472 C 239.766 164.752 235.344 163.033 238.463 161.572 C 232.852 163.52 232.585 154.164 229.947 155.501 C 224.011 153.626 227.637 146.986 220.565 142.908 C 219.92 138.611 213.54 134.884 211.505 128.403 C 210.606 125.084 204.296 115.555 208.172 124.423 C 211.472 132.961 217.279 140.272 222.111 147.575 C 225.863 154.528 230.293 161.795 237.127 166.133 C 239.43 168.343 241.654 171.728 244.907 172.421 Z M 222.659 147.995 C 222.929 146.829 224.072 150.519 222.659 147.995 Z M 254.156 175.85 C 255.866 175.084 251.697 174.885 254.156 175.85 Z M 258.348 177.379 C 257.914 175.268 256.434 178.56 258.348 177.379 Z M 263.595 179.568 C 266.094 177.19 259.745 178.068 263.595 179.568 Z M 272.589 184.581 C 274.107 182.337 267.731 183.734 272.589 184.581 Z M 255.319 172.542 C 259.199 170.031 250.307 172.507 255.319 172.542 Z M 259.255 174.505 C 259.145 173.177 257.852 175.099 259.255 174.505 Z M 278.93 186.785 C 282.093 188.781 297.4 191.16 287.815 187.603 C 286.211 187.941 270.042 183.03 278.93 186.785 Z M 247.696 162.458 C 247.388 161.128 242.786 160.989 247.696 162.458 Z M 256.855 167.797 C 259.239 166.134 251.907 166.514 256.855 167.797 Z M 264.559 172.52 C 267.98 171.231 259.01 171.225 264.559 172.52 Z M 243.969 158.399 C 247.68 161.246 258.936 158.764 249.652 156.7 C 245.427 154.448 235.904 152.906 242.395 158.058 L 243.969 158.399 L 243.969 158.399 Z M 269.777 174.151 C 271.323 171.518 263.294 172.647 269.777 174.151 Z M 261.935 167.919 C 271.01 170.486 254.303 162.18 259.696 166.974 L 260.891 167.515 L 261.935 167.919 L 261.935 167.919 Z M 277.658 177.006 C 286.253 177.088 269.895 175.822 277.658 177.006 L 277.658 177.006 Z M 240.662 153.427 C 240.326 151.826 238.541 153.561 240.662 153.427 Z M 292.197 185.162 C 292.426 182.27 289.392 187.313 292.197 185.162 Z M 255.329 162.409 C 254.809 160.886 252.643 162.347 255.329 162.409 Z M 241.477 152.422 C 246.411 152.126 234.722 150.248 241.477 152.422 Z M 225.067 141.815 C 224.453 139.45 219.698 137.563 225.067 141.815 Z M 268.146 169.155 C 267.243 168.124 267.721 169.38 268.146 169.155 Z M 294.961 185.609 C 294.875 184.034 293.5 186.206 294.961 185.609 Z M 265.773 166.704 C 266.256 164.675 261.566 166.09 265.773 166.704 Z M 245.797 154.044 C 249.468 153.651 239.917 151.563 245.797 154.044 Z M 279.589 175.041 C 285.309 172.775 274.013 173.935 279.589 175.041 Z M 262.012 163.11 C 268.605 163.96 254.167 158.626 260.565 162.633 L 262.012 163.11 L 262.012 163.11 Z M 284.925 177.198 C 291.08 173.519 289.051 185.815 295.367 178.237 C 301.598 173.688 289.987 183.862 297.666 179.048 C 303.219 175.334 311.422 180.809 316.604 182.596 C 320.331 182.412 323.954 185.818 327.774 183.746 C 335.128 181.765 313.393 180.808 319.091 177.294 C 312.361 179.252 307.39 174.959 304.078 170.649 C 296.53 168.906 287.803 165.047 284.036 158.367 C 282.5 155.859 286.255 158.72 282.71 154.621 C 278.162 150.575 275.89 145.983 272.837 141.065 C 269.19 139.119 268.765 133.392 268.396 140.873 C 268.425 136.152 263.992 132.974 262.91 134.295 C 262.891 129.748 267.654 132.027 264.32 128.662 C 263.602 123.949 261.239 119.038 260.528 113.717 C 259.425 111.152 260.373 105.659 256.762 111.465 C 255.446 117.602 256.325 103.924 258.371 108.434 C 261.056 103.832 257.407 104.373 257.257 105.012 C 259.007 101.129 258.365 95.621 256.801 97.722 C 257.733 93.606 258.274 82.574 255.406 84.529 C 257.144 80.225 258.703 64.835 251.156 70.703 C 248.098 70.746 242.802 71.813 240.298 73.058 C 248.148 77.385 239.509 74.621 236.313 73.933 C 235.897 77.937 232.732 76.205 228.778 76.245 C 235.094 77.026 225.703 82.703 222.08 80.498 C 217.375 82.747 226.141 88.36 222.175 90.096 C 222.662 92.712 214.966 89.151 215.571 95.193 C 211.003 93.272 214.942 102.361 217.227 99.287 C 224.996 101.39 222.696 106.183 222.894 110.737 C 221.628 113.39 216.644 104.5 221.784 104.912 C 217.729 98.325 217.299 102.531 213.929 105.591 C 213.146 105.813 222.524 109.945 216.639 111.988 C 221.816 112.787 221.964 117.318 223.018 120.185 C 226.13 123.427 225.493 116.606 229.217 120.501 C 226.86 117.031 216.735 110.723 224.887 112.746 C 224.844 109.253 223.413 106.436 225.911 106.505 C 228.384 102.026 223.32 117.549 228.895 111.856 C 230.439 111.182 230.821 107.371 233.595 112.216 C 237.624 116.18 235.05 119.052 229.367 115.422 C 230.383 118.872 236.97 120.105 235.732 125.499 C 237.044 130.243 238.88 128.496 240.48 128.222 C 241.735 132.831 242.448 129.442 242.508 127.248 C 248.255 128.478 246.909 131.876 248.707 134.249 C 252.667 136.037 243.038 122.132 249.838 130.068 C 256.991 136.527 252.52 139.223 246.101 138.188 C 250.164 137.86 251.474 143.681 256.557 143.477 C 261.191 145.682 264.329 154.15 256.34 150.625 C 253.57 148.126 243.765 145.044 251.773 149.796 C 259.17 153.222 265.044 155.271 272.178 159.57 C 277.283 163.215 279.489 167.389 281.424 168.216 C 277.133 170.265 268.493 166.579 274.909 165.449 C 270.907 164.72 266.406 162.697 270.239 167.683 C 273.499 170.404 281.786 170.116 283.272 170.424 C 282.013 173.199 279.851 173.42 283.324 173.635 C 279.45 175.699 284.566 176.019 284.925 177.198 Z M 277.003 154.828 C 274.647 152.364 274.037 147.747 276.585 151.764 C 277.891 152.289 280.77 159.308 277.003 154.828 L 277.003 154.828 Z M 302.801 171.215 C 304.271 171.12 302.843 172.332 302.801 171.215 Z M 273.282 148.785 C 273.192 145.059 274.135 151.659 273.282 148.785 Z M 270.718 145.335 C 267.754 139.607 274.455 146.957 270.718 145.335 Z M 239.647 123.89 C 241.389 123.426 240.504 126.869 239.647 123.89 Z M 264.376 137.294 C 265.445 133.277 265.633 140.664 264.376 137.294 Z M 246.906 125.147 C 245.674 122.93 249.482 127.225 246.906 125.147 Z M 261.899 129.953 C 259.09 123.66 263.887 126.516 262.52 130.984 L 261.899 129.953 L 261.899 129.953 Z M 236.044 112.71 C 234.788 110.646 232.711 104.589 233.38 102.739 C 233.984 105.751 239.783 115.699 236.224 106.86 C 232.291 99.451 240.926 109.265 241.814 111.113 C 242.228 112.952 239.387 110.611 241.312 114.922 C 237.802 110.014 239.24 117.632 236.044 112.71 Z M 228.053 107.204 C 228.382 102.404 229.882 110.495 228.053 107.204 Z M 231.647 108.441 C 233.362 104.818 234.555 113.492 231.647 108.441 Z M 223.001 101.753 C 220.026 98.796 217.873 96.071 223.14 99.918 C 225.17 99.997 218.631 93.721 223.629 97.925 C 228.884 98.883 226.224 106.542 223.001 101.753 Z M 227.543 101.634 C 229.27 99.922 228.46 103.319 227.543 101.634 Z M 230.337 102.53 C 227.718 97.62 233.516 104.588 230.337 102.53 Z M 224.782 97.221 C 216.133 89.524 235.649 101.245 226.195 98.648 L 224.782 97.221 L 224.782 97.221 Z M 249.561 111.618 C 245.818 109.374 248.569 95.82 249.845 105.09 C 253.484 103.913 249.644 109.877 252.358 109.822 C 251.93 113.585 250.716 114.938 249.561 111.618 Z M 258.726 117.035 C 259.093 112.95 259.499 119.827 258.726 117.035 Z M 257.134 115.462 C 257.546 113.717 257.177 117.517 257.134 115.462 Z M 226.478 94.692 C 220.922 87.026 242.626 102.446 230.037 96.636 C 228.721 96.292 227.139 96.169 226.478 94.692 Z M 244.127 104.049 C 243.602 97.594 245.302 105.119 244.127 104.049 L 244.127 104.049 Z M 257.527 112.645 C 258.564 108.968 257.604 115.077 257.527 112.645 Z M 227.329 91.766 C 230.632 91.06 241.014 97.565 231.48 93.624 C 230.42 92.452 228.162 92.984 227.329 91.766 Z M 255.686 105.899 C 256.039 99.299 257.658 101.957 255.698 106.844 L 255.686 105.899 L 255.686 105.899 Z M 229.788 89.469 C 231.133 87.496 226.216 80.546 230.496 86.977 C 232.346 88.446 235.851 89.439 232.756 90.057 C 237.624 94.351 231.569 91.22 229.788 89.469 Z M 254.284 103.838 C 255.213 96.319 255.103 108.242 254.284 103.838 Z M 226.978 82.525 C 228.005 82.086 227.52 83.894 226.978 82.525 Z M 233.367 86.328 C 235.012 82.878 236.401 90.177 233.367 86.328 Z M 251.391 96.355 C 251.373 95.029 251.731 98.282 251.391 96.355 Z M 250.347 94.043 C 247.845 87.871 252.674 97.311 250.347 94.043 Z M 248.811 89.997 C 248.391 87.447 250.238 93.201 248.811 89.997 L 248.811 89.997 Z M 251.31 85.933 C 249.594 82.908 253.478 72.602 253.912 78.994 C 252.1 83.974 253.389 86.76 254.653 80.08 C 256.987 74.823 254.149 90.454 251.31 85.933 L 251.31 85.933 Z M 253.879 70.607 C 254.628 69.688 254.045 71.714 253.879 70.607 Z M 249.589 155.141 C 248.572 154.253 249.717 155.706 249.589 155.141 Z M 258.427 159.611 C 263.343 160.873 263.318 158.847 258.875 158.245 C 256.485 156.021 248.944 153.663 255.694 157.969 C 256.141 159.101 257.553 159.075 258.427 159.611 Z M 240.973 148.019 C 243.681 150.038 251.174 153.742 244.831 148.787 C 246.97 146.303 240.738 144.98 242.805 143.318 C 237.547 140.1 238.657 140.387 242.341 140.488 C 236.021 137.663 243.253 137.874 242.912 136.427 C 240.476 135.946 230.809 132.131 236.496 136.741 C 230.715 133.793 235.118 137.839 233.371 137.411 C 227.46 135.799 238.636 141.913 232.432 140.395 C 235.824 143.083 241.561 147.279 233.866 143.239 C 232.852 144.699 239.372 146.911 240.973 148.019 Z M 250.216 153.329 C 261.455 156.95 244.706 148.904 250.216 153.329 Z M 297.532 181.993 C 297.677 179.763 295.996 183.895 297.532 181.993 Z M 302.396 184.04 C 304.989 181.527 302.502 188.042 306.692 183.425 C 306.737 180.119 306.563 178.167 301.877 182.182 C 300.585 182.899 300.008 185.945 302.396 184.04 Z M 225.197 135.558 C 224.401 132.427 219.615 132.443 225.197 135.558 Z M 230.39 138.961 C 228.462 135.763 223.51 136.066 230.39 138.961 Z M 259.934 156.778 C 262.818 159.34 273.181 158.657 263.437 157.093 C 261.994 154.959 254.273 155.473 259.934 156.778 Z M 300.546 181.859 C 304.985 178.134 296.245 183.521 300.546 181.859 Z M 309.779 188.204 C 309.806 187.008 307.865 188.727 309.779 188.204 Z M 309.793 186.53 C 314.709 181.322 305.029 186.838 309.793 186.53 L 309.793 186.53 Z M 212.425 124.865 C 208.235 118.886 209.82 116.199 205.779 111.318 C 205.015 107.585 198.848 99.115 202.59 108.088 C 206.017 113.337 207.036 121.463 212.425 124.865 Z M 308.251 184.874 C 317.295 179.029 304.538 182.328 308.251 184.874 Z M 315.155 187.579 C 319.684 183.69 312.29 186.766 315.155 187.579 Z M 223.658 128.95 C 224.954 127.021 220.31 128.703 223.658 128.95 Z M 313.713 185.732 C 318.099 182.905 312.703 183.339 312.919 185.992 L 313.713 185.732 L 313.713 185.732 Z M 254.2 148.221 C 254.049 146.311 251.884 148.383 254.2 148.221 Z M 257.878 150.337 C 256.709 147.974 256.08 150.708 257.878 150.337 Z M 320.75 187.643 C 326.368 183.59 317.344 186.867 319.571 188.411 L 320.75 187.643 L 320.75 187.643 Z M 318.599 186.603 C 323.175 182.768 313.767 188.303 318.599 186.603 Z M 329.59 193.923 C 332.663 191.865 325.857 193.257 329.59 193.923 Z M 226.476 127.559 C 230.595 128.482 242.936 137.703 235.655 128.197 C 231.926 127.093 234.163 117.978 230.359 119.591 C 232.912 123.856 232.46 125.671 227.1 122.982 C 220.363 119.694 223.314 124.612 224.63 125.968 C 222.836 126.375 227.004 127.525 226.476 127.559 Z M 207.71 112.739 C 208.448 109.689 200.92 95.96 204.156 105.86 C 205.324 107.933 205.205 111.864 207.71 112.739 Z M 242.154 133.974 C 240.033 132.2 242.053 133.723 242.154 133.974 Z M 247.377 135.189 C 247.374 131.959 241.603 133.877 247.377 135.189 Z M 292.638 163.723 C 291.775 161.515 289.226 163.671 292.638 163.723 L 292.638 163.723 Z M 294.812 165.31 C 294.491 164.075 293.558 165.549 294.812 165.31 Z M 312.752 176.61 C 314.477 175.336 310.599 176.448 312.752 176.61 Z M 217.084 115.132 C 222.019 113.221 211.796 113.769 217.084 115.132 Z M 288.654 160.221 C 288.599 157.026 285.507 161.014 288.654 160.221 Z M 215.134 110.588 C 218.304 109.517 212.201 109.883 215.134 110.588 Z M 224.335 115.045 C 224.278 113.995 223.362 115.443 224.335 115.045 Z M 336.567 183.867 C 340.643 183.041 349.933 185.942 351.434 182.786 C 346.484 182.666 334.307 179.294 333.731 183.591 L 334.815 183.762 L 336.567 183.867 L 336.567 183.867 Z M 227.26 115.782 C 227.331 112.545 224.735 115.661 227.26 115.782 Z M 203.067 99 C 201.968 92.832 198.888 98.066 203.067 99 Z M 208.836 100.45 C 208.907 98.469 203.555 98.668 208.836 100.45 Z M 212.133 102.069 C 211.18 101.297 211.387 103.045 212.133 102.069 Z M 232.878 115.377 C 233.854 114.48 230.565 114.713 232.878 115.377 Z M 209.937 98.417 C 209.379 93.758 203.255 97.719 209.937 98.417 Z M 198.109 90.743 C 197.941 88.593 196.957 91.554 198.109 90.743 Z M 199.869 89.414 C 199.581 86.865 198.358 89.739 199.869 89.414 Z M 209.589 95.217 C 213.7 93.602 202.102 91.877 208.749 94.912 L 209.589 95.217 Z M 339.687 175.576 C 342.318 173.164 336.343 174.83 339.687 175.576 Z M 355.404 183.723 C 356.458 180.604 352.749 184.133 355.404 183.723 Z M 210.583 90.122 C 211.016 87.105 207.324 90.721 210.583 90.122 Z M 196.752 80.855 C 196.009 76.596 196.111 69.12 203.218 71.647 C 193.732 73.53 209.783 83.437 207.756 75.615 C 211.745 75.811 215.559 73.258 213.465 77.132 C 221.324 76.264 226.773 69.449 234.364 70.404 C 240.277 69.622 246.742 69.028 253.114 66.648 C 258.353 66.27 263.396 60.63 260.525 57.286 C 253.38 56.682 245.901 57.576 238.004 59.145 C 229.254 60.965 221.305 64.421 212.476 65.904 C 203.87 67.06 214.207 69.089 211.742 69.542 C 207.252 71.1 217.098 72.15 211.16 73.793 C 207.493 73.096 203.676 71.836 205.243 67.971 C 196.999 69.041 189.755 72.463 196.268 80.852 L 196.752 80.855 L 196.752 80.855 Z M 216.617 70.739 C 218.55 63.618 226.972 76.598 219.785 71.684 C 218.926 71.042 217.514 70.518 216.617 70.739 Z M 216.993 67.286 C 219.782 65.208 218.476 68.452 216.993 67.286 Z M 220.535 67.343 C 220.787 64.066 228.644 69.077 221.83 68.522 L 220.535 67.343 L 220.535 67.343 Z M 225.38 65.395 C 227.15 63.327 225.889 67.234 225.38 65.395 Z M 226.62 64.564 C 229.566 61.024 243.306 62.305 233.249 64.219 C 230.553 62.19 228.487 65.416 226.62 64.564 Z M 244.55 61.801 C 244.102 52.13 253.458 65.237 244.55 61.801 Z M 249.638 61.773 C 251.498 56.899 256.856 59.817 250.498 60.793 C 250.636 61.312 250.312 63.31 249.638 61.773 Z M 208.577 87.62 C 214.134 84.217 202.677 84.667 208.577 87.62 L 208.577 87.62 Z M 212.686 88.762 C 214.634 86.69 208.452 87.921 212.686 88.762 Z M 200.578 80.169 C 203.754 77.73 196.82 79.241 200.578 80.169 Z M 364.681 182.831 C 364.772 180.001 362.253 184.107 364.681 182.831 Z M 348.006 171.452 C 348.48 168.194 345.863 171.736 348.006 171.452 Z M 369.266 183.929 C 373.706 183.944 382.719 182.55 373.058 182.554 C 371.542 182.791 364.225 182.74 369.266 183.929 L 369.266 183.929 Z M 216.3 86.765 C 219.894 86.518 221.922 82.801 215.605 83.015 C 205.815 82.001 224.243 86.367 214.35 85.118 C 213.02 85.999 216.223 87.008 216.3 86.765 Z M 219.465 88.366 C 219.09 86.059 218.354 89.592 219.465 88.366 Z M 223.219 78.356 C 224.778 76.422 221.061 77.839 223.219 78.356 Z M 211.269 58.381 C 217.682 56.2 226.451 53.748 229.479 59.455 C 226.397 55.746 228.235 52.095 231.146 57.518 C 235.262 63.005 237.322 55.023 234.645 53.182 C 237.696 56.972 241.165 58.763 236.688 53.422 C 241.553 47.569 226.945 54.188 223.624 54.122 C 222.027 54.839 207.131 57.92 211.269 58.381 Z M 215.027 51.183 C 218.684 48.423 227.676 52.825 221.906 48.44 C 221.342 47.942 209.27 51.766 215.027 51.183 Z M 228.361 51.734 C 232.641 51.843 226.514 45.984 231.615 48.639 C 230.777 45.902 225.676 45.39 223.183 44.296 C 221.772 46.798 226.054 51.768 228.361 51.734 Z M 217.365 39.63 C 218.846 37.623 214.77 40.648 217.365 39.63 Z M 222.815 40.935 C 229.712 40.02 221.056 37.964 221.425 40.861 L 222.815 40.935 L 222.815 40.935 Z M 212.639 32.973 C 207.782 26.632 221.773 34.038 216.839 27.4 C 212.685 24.093 208.694 31.122 212.639 32.973 Z M 274.969 66.545 C 277.197 62.597 265.772 61.222 273.468 65.146 C 274.177 65.383 274.017 66.819 274.969 66.545 Z" id="path2900"/>
    <g style="font-size:40px;font-style:normal;font-weight:normal;line-height:89.99999762%;fill:#000000;fill-opacity:1;stroke:none;font-family:Bitstream Vera Sans" id="text2870" transform="translate(0,4)"/>
  </g>
</svg>